<svg t="1681478916638" class="icon" viewBox="0 0 1024 1024" version="1.1" xmlns="http://www.w3.org/2000/svg" p-id="2657" width="200" height="200"><path d="M760.832 443.392c37.376 0 67.584 30.72 67.584 69.12v322.56c0 37.888-30.208 69.12-67.584 69.12h-496.64c-37.376 0-67.584-30.72-67.584-69.12v-322.56c0-37.888 30.208-69.12 67.584-69.12h496.64z m0-69.12h-496.64c-74.752 0-135.68 61.952-135.68 138.24v322.56c0 76.288 60.416 138.24 135.68 138.24h496.64c74.752 0 135.68-61.952 135.68-138.24v-322.56c0-76.288-60.928-138.24-135.68-138.24z m-248.32-252.928c87.04 0 158.208 72.192 158.208 161.28v92.16H354.816v-92.16c0-89.088 70.656-161.28 157.696-161.28z m0-69.12c-124.416 0-225.792 102.912-225.792 230.4v161.28h451.584v-161.28c0-127.488-100.864-230.4-225.792-230.4z m0 724.992c-18.944 0-33.792-15.36-33.792-34.304v-138.24c0-18.944 15.36-34.304 33.792-34.304s33.792 15.36 33.792 34.304v138.24c0 18.944-14.848 34.304-33.792 34.304z" fill="#333333" p-id="2658"></path></svg>